<svg width="172" height="172" viewBox="0 0 172 172" fill="none" xmlns="http://www.w3.org/2000/svg">
<rect width="172" height="172" rx="7" fill="#3B0061"/>
<path d="M35.456 41.52V48H14.384V13.032H22.496V41.52H35.456Z" fill="#00D17A"/>
<path d="M151.456 41.52V48H130.384V13.032H138.496V41.52H151.456Z" fill="#00D17A"/>
<path d="M103.704 30.504C103.704 33.032 103.264 35.384 102.384 37.56C101.52 39.736 100.296 41.632 98.712 43.248C97.128 44.848 95.216 46.104 92.976 47.016C90.752 47.928 88.28 48.384 85.56 48.384C82.84 48.384 80.36 47.928 78.12 47.016C75.88 46.104 73.96 44.848 72.36 43.248C70.776 41.632 69.544 39.736 68.664 37.56C67.8 35.384 67.368 33.032 67.368 30.504C67.368 27.976 67.8 25.624 68.664 23.448C69.544 21.272 70.776 19.384 72.36 17.784C73.96 16.184 75.88 14.928 78.12 14.016C80.36 13.104 82.84 12.648 85.56 12.648C88.28 12.648 90.752 13.112 92.976 14.04C95.216 14.952 97.128 16.208 98.712 17.808C100.296 19.408 101.52 21.296 102.384 23.472C103.264 25.648 103.704 27.992 103.704 30.504ZM95.4 30.504C95.4 28.776 95.176 27.224 94.728 25.848C94.28 24.456 93.632 23.28 92.784 22.32C91.952 21.36 90.928 20.624 89.712 20.112C88.496 19.6 87.112 19.344 85.56 19.344C83.992 19.344 82.592 19.6 81.36 20.112C80.144 20.624 79.112 21.36 78.264 22.32C77.432 23.28 76.792 24.456 76.344 25.848C75.896 27.224 75.672 28.776 75.672 30.504C75.672 32.248 75.896 33.816 76.344 35.208C76.792 36.584 77.432 37.752 78.264 38.712C79.112 39.672 80.144 40.408 81.36 40.92C82.592 41.416 83.992 41.664 85.56 41.664C87.112 41.664 88.496 41.416 89.712 40.92C90.928 40.408 91.952 39.672 92.784 38.712C93.632 37.752 94.28 36.584 94.728 35.208C95.176 33.816 95.4 32.248 95.4 30.504Z" fill="#00D17A"/>
<path d="M26.72 87.192C28.832 87.192 30.352 86.688 31.28 85.68C32.208 84.672 32.672 83.264 32.672 81.456C32.672 80.656 32.552 79.928 32.312 79.272C32.072 78.616 31.704 78.056 31.208 77.592C30.728 77.112 30.112 76.744 29.36 76.488C28.624 76.232 27.744 76.104 26.72 76.104H22.496V87.192H26.72ZM26.72 70.032C29.184 70.032 31.296 70.328 33.056 70.92C34.832 71.496 36.288 72.296 37.424 73.32C38.576 74.344 39.424 75.552 39.968 76.944C40.512 78.336 40.784 79.84 40.784 81.456C40.784 83.2 40.504 84.8 39.944 86.256C39.384 87.712 38.528 88.96 37.376 90C36.224 91.04 34.76 91.856 32.984 92.448C31.224 93.024 29.136 93.312 26.72 93.312H22.496V105H14.384V70.032H26.72Z" fill="#00D17A"/>
<path d="M83.76 86.472C84.864 86.472 85.8 86.336 86.568 86.064C87.352 85.776 87.992 85.384 88.488 84.888C88.984 84.392 89.344 83.816 89.568 83.16C89.792 82.488 89.904 81.768 89.904 81C89.904 79.464 89.4 78.264 88.392 77.4C87.4 76.536 85.856 76.104 83.76 76.104H80.496V86.472H83.76ZM100.992 105H93.648C92.288 105 91.312 104.488 90.72 103.464L84.912 93.312C84.64 92.88 84.336 92.568 84 92.376C83.664 92.168 83.184 92.064 82.56 92.064H80.496V105H72.384V70.032H83.76C86.288 70.032 88.44 70.296 90.216 70.824C92.008 71.336 93.464 72.056 94.584 72.984C95.72 73.912 96.544 75.008 97.056 76.272C97.568 77.536 97.824 78.912 97.824 80.4C97.824 81.536 97.672 82.608 97.368 83.616C97.064 84.624 96.616 85.56 96.024 86.424C95.432 87.272 94.696 88.032 93.816 88.704C92.952 89.376 91.952 89.928 90.816 90.36C91.344 90.632 91.84 90.976 92.304 91.392C92.768 91.792 93.184 92.272 93.552 92.832L100.992 105Z" fill="#00D17A"/>
<path d="M159.704 87.504C159.704 90.032 159.264 92.384 158.384 94.56C157.52 96.736 156.296 98.632 154.712 100.248C153.128 101.848 151.216 103.104 148.976 104.016C146.752 104.928 144.28 105.384 141.56 105.384C138.84 105.384 136.36 104.928 134.12 104.016C131.88 103.104 129.96 101.848 128.36 100.248C126.776 98.632 125.544 96.736 124.664 94.56C123.8 92.384 123.368 90.032 123.368 87.504C123.368 84.976 123.8 82.624 124.664 80.448C125.544 78.272 126.776 76.384 128.36 74.784C129.96 73.184 131.88 71.928 134.12 71.016C136.36 70.104 138.84 69.648 141.56 69.648C144.28 69.648 146.752 70.112 148.976 71.04C151.216 71.952 153.128 73.208 154.712 74.808C156.296 76.408 157.52 78.296 158.384 80.472C159.264 82.648 159.704 84.992 159.704 87.504ZM151.4 87.504C151.4 85.776 151.176 84.224 150.728 82.848C150.28 81.456 149.632 80.28 148.784 79.32C147.952 78.36 146.928 77.624 145.712 77.112C144.496 76.6 143.112 76.344 141.56 76.344C139.992 76.344 138.592 76.6 137.36 77.112C136.144 77.624 135.112 78.36 134.264 79.32C133.432 80.28 132.792 81.456 132.344 82.848C131.896 84.224 131.672 85.776 131.672 87.504C131.672 89.248 131.896 90.816 132.344 92.208C132.792 93.584 133.432 94.752 134.264 95.712C135.112 96.672 136.144 97.408 137.36 97.92C138.592 98.416 139.992 98.664 141.56 98.664C143.112 98.664 144.496 98.416 145.712 97.92C146.928 97.408 147.952 96.672 148.784 95.712C149.632 94.752 150.28 93.584 150.728 92.208C151.176 90.816 151.4 89.248 151.4 87.504Z" fill="#00D17A"/>
<path d="M22.544 132.272V140.432H33.536V146.432H22.544V154.76H36.896V161H14.384V126.032H36.896V132.272H22.544Z" fill="#00D17A"/>
<path d="M93.456 154.52V161H72.384V126.032H80.496V154.52H93.456Z" fill="#00D17A"/>
<path d="M159.704 143.504C159.704 146.032 159.264 148.384 158.384 150.56C157.52 152.736 156.296 154.632 154.712 156.248C153.128 157.848 151.216 159.104 148.976 160.016C146.752 160.928 144.28 161.384 141.56 161.384C138.84 161.384 136.36 160.928 134.12 160.016C131.88 159.104 129.96 157.848 128.36 156.248C126.776 154.632 125.544 152.736 124.664 150.56C123.8 148.384 123.368 146.032 123.368 143.504C123.368 140.976 123.8 138.624 124.664 136.448C125.544 134.272 126.776 132.384 128.36 130.784C129.96 129.184 131.88 127.928 134.12 127.016C136.36 126.104 138.84 125.648 141.56 125.648C144.28 125.648 146.752 126.112 148.976 127.04C151.216 127.952 153.128 129.208 154.712 130.808C156.296 132.408 157.52 134.296 158.384 136.472C159.264 138.648 159.704 140.992 159.704 143.504ZM151.4 143.504C151.4 141.776 151.176 140.224 150.728 138.848C150.28 137.456 149.632 136.28 148.784 135.32C147.952 134.36 146.928 133.624 145.712 133.112C144.496 132.6 143.112 132.344 141.56 132.344C139.992 132.344 138.592 132.6 137.36 133.112C136.144 133.624 135.112 134.36 134.264 135.32C133.432 136.28 132.792 137.456 132.344 138.848C131.896 140.224 131.672 141.776 131.672 143.504C131.672 145.248 131.896 146.816 132.344 148.208C132.792 149.584 133.432 150.752 134.264 151.712C135.112 152.672 136.144 153.408 137.36 153.92C138.592 154.416 139.992 154.664 141.56 154.664C143.112 154.664 144.496 154.416 145.712 153.92C146.928 153.408 147.952 152.672 148.784 151.712C149.632 150.752 150.28 149.584 150.728 148.208C151.176 146.816 151.4 145.248 151.4 143.504Z" fill="#00D17A"/>
</svg>
